STARTFONT 2.1
FONT jis.jis8a00.24
SIZE 24 72 72
FONTBOUNDINGBOX 24 24 0 -3
STARTPROPERTIES 4
FONT_DESCENT 3
FONT_ASCENT 21
DEFAULT_CHAR 0
COPYRIGHT "Copyright (c) 1992 AT&T - All rights reserved."
ENDPROPERTIES
CHARS 161
STARTCHAR ch-0
ENCODING 0
SWIDTH 1000 0
DWIDTH 24 0
BBX 24 24 0 -3
BITMAP
000060
0ffff0
000000
000000
000006
ffffff
000000
000000
000060
0ffff0
000000
000000
000060
0ffff0
000000
000000
080030
0ffff8
0c0030
0c0030
0c0030
0c0030
0ffff0
0c0030
ENDCHAR
STARTCHAR ch-2
ENCODING 2
SWIDTH 1000 0
DWIDTH 24 0
BBX 24 24 0 -3
BITMAP
030000
7f8006
003fff
0000c0
0180c0
ffc0c0
0000c0
0000c0
0300c0
7f80c0
0000c0
0000c0
0300c0
7f80c0
0000c0
0000c0
4300c0
7f80c0
6300c0
6300c0
6300c0
6300c0
7f07c0
630180
ENDCHAR
STARTCHAR ch-3
ENCODING 3
SWIDTH 1000 0
DWIDTH 24 0
BBX 24 24 0 -3
BITMAP
00c1c0
7fe180
000180
000180
006180
fff180
000180
000180
00c180
7fe1e0
0001b8
00018e
00c187
7fe183
000180
000180
40c180
7fe180
60c180
60c180
60c180
60c180
7fc180
60c180
ENDCHAR
STARTCHAR ch-8
ENCODING 8
SWIDTH 1000 0
DWIDTH 24 0
BBX 24 24 0 -3
BITMAP
0180e0
7fc0c0
0000c0
0000c0
0060c0
fff0c0
0000c0
0000c0
0180c6
7fdfff
0000c0
0000c0
0180c0
7fc0c0
0000c0
0000c0
4180c0
7fc0c0
6180c0
6180c0
6180c0
6180c0
7f80c0
6180c0
ENDCHAR
STARTCHAR ch-10
ENCODING 10
SWIDTH 1000 0
DWIDTH 24 0
BBX 24 24 0 -3
BITMAP
030000
7f8030
003ff8
000630
018630
ffc630
000630
000630
030630
7f8630
000630
003fb0
030630
7f8630
000630
000630
430430
7f8c12
630c1a
63081a
63180e
63100e
7f2007
634003
ENDCHAR
STARTCHAR ch-12
ENCODING 12
SWIDTH 1000 0
DWIDTH 24 0
BBX 24 24 0 -3
BITMAP
030000
7f800c
001ffe
0000c0
0180c0
ffc0c0
0000c0
0000c0
0300c0
7f80c0
0000c0
0000c0
0300c0
7f80c0
0000c0
0000c0
4300c0
7f80c0
6300c0
6300c0
6300c0
6300c6
7f3fff
630000
ENDCHAR
STARTCHAR ch-14
ENCODING 14
SWIDTH 1000 0
DWIDTH 24 0
BBX 24 24 0 -3
BITMAP
030038
7f8030
000030
000030
018030
ffc030
000036
003fff
030030
7f8030
001030
000c30
030630
7f8630
000630
000030
430030
7f8030
630030
630030
630030
630030
7f01f0
630060
ENDCHAR
STARTCHAR ch-16
ENCODING 16
SWIDTH 1000 0
DWIDTH 24 0
BBX 24 24 0 -3
BITMAP
030000
7f800c
000ffe
0000c0
0180c0
ffc0c0
0000c0
0000c0
0300c0
7f80c0
0000c6
001fff
0300c0
7f80c0
0000c0
0000c0
4300c0
7f80c0
6300c0
6300c0
6300c0
6300c0
7f00c0
6300c0
ENDCHAR
STARTCHAR ch-19
ENCODING 19
SWIDTH 1000 0
DWIDTH 24 0
BBX 24 24 0 -3
BITMAP
030007
7f8e06
000ce6
000cc6
018cc6
ffccc6
000cc6
000cc6
030cc6
7f8cc6
000cc6
000cc6
030cc6
7f8cc6
000cc6
000cc6
4318c6
7f98c6
6318c6
6310c6
633006
632006
7f4006
608006
ENDCHAR
STARTCHAR ch-22
ENCODING 22
SWIDTH 1000 0
DWIDTH 24 0
BBX 24 24 0 -3
BITMAP
030400
7f8700
000600
000600
018606
ffcfff
000c00
000c00
031800
7f9018
002ffc
000070
0300e0
7f81c0
000380
000700
430e00
7f8c02
631802
631802
631802
631e07
7f0fff
6303fe
ENDCHAR
STARTCHAR ch-23
ENCODING 23
SWIDTH 1000 0
DWIDTH 24 0
BBX 24 24 0 -3
BITMAP
030018
7f807c
0003e0
003f00
018300
ffc300
000300
000300
030300
7f8300
000306
007fff
030300
7f8300
000300
000300
418300
7fc300
618302
618302
618302
618303
7f83ff
6181fe
ENDCHAR
STARTCHAR ch-24
ENCODING 24
SWIDTH 1000 0
DWIDTH 24 0
BBX 24 24 0 -3
BITMAP
018000
7fc00c
000ffe
00000c
00c00c
ffe00c
00000c
00000c
01800c
7fc80c
000ffc
000c0c
018c0c
7fcc00
000c00
000c00
418c00
7fcc00
618c00
618c02
618c02
618c03
7f8fff
6187fe
ENDCHAR
STARTCHAR ch-27
ENCODING 27
SWIDTH 1000 0
DWIDTH 24 0
BBX 24 24 0 -3
BITMAP
030470
7f8760
000660
000660
018660
ffce64
000c67
000c66
030c6c
7f9c68
001c70
002c60
034c60
7f8c60
000c60
000c60
430c60
7f8c60
630c62
630c62
630c62
630c63
7f0c7f
630c3e
ENDCHAR
STARTCHAR ch-29
ENCODING 29
SWIDTH 1000 0
DWIDTH 24 0
BBX 24 24 0 -3
BITMAP
03000c
7f9ffe
000630
000630
018630
ffc630
000630
000630
030630
7f8636
003fff
000070
0300f0
7f80f0
0001b0
0001b0
430330
7f8330
630630
630c30
631830
636030
7f01f0
630060
ENDCHAR
STARTCHAR ch-31
ENCODING 31
SWIDTH 1000 0
DWIDTH 24 0
BBX 24 24 0 -3
BITMAP
030420
7f8720
000620
000620
018410
ffcc10
000c18
000818
03180c
7f920f
002386
004300
030300
7f8300
000300
000200
430220
7f8610
630418
63040c
63047c
633fc6
7f1c06
631006
ENDCHAR
STARTCHAR ch-35
ENCODING 35
SWIDTH 1000 0
DWIDTH 24 0
BBX 24 24 0 -3
BITMAP
030380
7f8300
000300
000300
018318
ffdffc
000318
000318
030318
7f8318
000318
000318
03031a
7fbfff
000680
000680
430640
7f8440
630c60
630830
631838
63101f
7f200e
60c006
ENDCHAR
STARTCHAR ch-37
ENCODING 37
SWIDTH 1000 0
DWIDTH 24 0
BBX 24 24 0 -3
BITMAP
0601c0
7f0180
000180
000180
032186
ffbfff
003186
003186
063186
7f3186
003146
003326
063226
7f3436
003836
003006
463006
7f3006
663006
663006
663006
663006
7e303e
66300c
ENDCHAR
STARTCHAR ch-42
ENCODING 42
SWIDTH 1000 0
DWIDTH 24 0
BBX 24 24 0 -3
BITMAP
0301c0
7f8180
000180
000180
018180
ffc186
003fff
000300
030300
7f8300
00030c
0003fe
03030c
7f830c
00030c
00030c
41860c
7fc60c
61860c
61841c
618c18
618818
7f90f8
61a030
ENDCHAR
STARTCHAR ch-45
ENCODING 45
SWIDTH 1000 0
DWIDTH 24 0
BBX 24 24 0 -3
BITMAP
030860
7f8ff0
000c60
000c60
018c60
ffcc60
000c60
00087e
03183e
7f9000
002000
000018
033ffc
7f8818
000838
000430
430660
7f83c0
630180
6303c0
630670
630c3f
7f181e
636006
ENDCHAR
STARTCHAR ch-49
ENCODING 49
SWIDTH 1000 0
DWIDTH 24 0
BBX 24 24 0 -3
BITMAP
030400
7f8700
000600
000600
018c0c
ffcffe
0018c0
0010c0
0320c0
7f80c0
0000c0
0000c6
033fff
7f80c0
0000c0
0000c0
4300c0
7f80c0
6300c0
6300c0
6300c0
6300c0
7f00c0
6300c0
ENDCHAR
STARTCHAR ch-51
ENCODING 51
SWIDTH 1000 0
DWIDTH 24 0
BBX 24 24 0 -3
BITMAP
030000
7f880c
000ffe
000c0c
018c0c
ffcc0c
000c0c
000c0c
030c0c
7f8ffc
000c8c
000c80
030c80
7f8c40
000c40
000c40
431820
7f9820
631830
631018
63301c
63200f
7f400e
608006
ENDCHAR
STARTCHAR ch-52
ENCODING 52
SWIDTH 1000 0
DWIDTH 24 0
BBX 24 24 0 -3
BITMAP
030018
7f90fc
001fc0
001800
019800
ffd800
001806
001fff
031860
7f9860
001860
001b60
0318e0
7f9870
00187c
00186e
431866
7fb060
633060
632060
636060
634060
7f8060
630060
ENDCHAR
STARTCHAR ch-54
ENCODING 54
SWIDTH 1000 0
DWIDTH 24 0
BBX 24 24 0 -3
BITMAP
060000
7f0006
007fff
000018
030018
ff8018
000018
002198
063fd8
7f3198
003198
003198
063198
7f3198
003198
003f98
433198
7f8018
630018
630018
630018
630018
7f00f8
630030
ENDCHAR
STARTCHAR ch-58
ENCODING 58
SWIDTH 1000 0
DWIDTH 24 0
BBX 24 24 0 -3
BITMAP
030300
7f8300
000680
000680
018440
ffcc60
000830
001838
03121c
7fa38f
004706
008600
030c40
7f9870
0020e0
0001c0
430308
7f860e
63181c
630038
630060
6301c0
7f0700
633800
ENDCHAR
STARTCHAR ch-59
ENCODING 59
SWIDTH 1000 0
DWIDTH 24 0
BBX 24 24 0 -3
BITMAP
030600
7f8300
000380
000180
00c00c
fffffe
000180
000180
030180
7f8180
000180
000180
030198
7f9ffc
000180
000180
430180
7f8180
630180
630180
630180
630186
7f7fff
630000
ENDCHAR
STARTCHAR ch-60
ENCODING 60
SWIDTH 1000 0
DWIDTH 24 0
BBX 24 24 0 -3
BITMAP
030000
7f8006
003fff
0000c0
0180c0
ffc0c0
0000c0
0000c0
031cc0
7f98c0
0018cc
0018fe
0318c0
7f98c0
0018c0
0018c0
4318c0
7f98c0
6318c0
6318c0
6318c0
6318c6
7f7fff
630000
ENDCHAR
STARTCHAR ch-65
ENCODING 65
SWIDTH 1000 0
DWIDTH 24 0
BBX 24 24 0 -3
BITMAP
0301c0
7f8180
000180
000180
018180
ffc186
003fff
000180
030180
7f8180
000180
000180
030180
7f918c
001ffe
00180c
43180c
7f980c
63180c
63180c
63180c
631ffc
7f180c
63180c
ENDCHAR
STARTCHAR ch-70
ENCODING 70
SWIDTH 1000 0
DWIDTH 24 0
BBX 24 24 0 -3
BITMAP
06000c
7f003e
0011f0
001fe0
031860
ff9860
001860
001860
061860
7f1866
001fff
001860
061860
7f1860
001860
001860
461830
7f1f32
667c32
663032
66201a
66019f
7effcf
660006
ENDCHAR
STARTCHAR ch-72
ENCODING 72
SWIDTH 1000 0
DWIDTH 24 0
BBX 24 24 0 -3
BITMAP
20000c
3ffffe
30c30c
30c30c
30c30c
3ffffc
30000c
000000
0ffff0
000006
ffffff
000000
000000
0ffff0
000000
000000
0ffff0
000000
100018
1ffffc
180018
180018
1ffff8
180018
ENDCHAR
STARTCHAR ch-80
ENCODING 80
SWIDTH 1000 0
DWIDTH 24 0
BBX 24 24 0 -3
BITMAP
030400
7f8700
000600
000600
018c06
ffcfff
000980
001980
031180
7fb18c
0021fe
004180
030180
7f8180
00018c
0001fe
418180
7fc180
618180
618180
618180
618180
7f8180
618180
ENDCHAR
STARTCHAR ch-81
ENCODING 81
SWIDTH 1000 0
DWIDTH 24 0
BBX 24 24 0 -3
BITMAP
0601c0
7f0180
000180
001180
031186
ffbfff
003006
006004
066008
7f0e00
000c10
000c1c
060c38
7f0c70
000cc0
000f00
430c00
7f8c00
630c00
630c04
630c04
630c06
7f0ffe
6307fc
ENDCHAR
STARTCHAR ch-82
ENCODING 82
SWIDTH 1000 0
DWIDTH 24 0
BBX 24 24 0 -3
BITMAP
030100
7f81c0
000180
000180
018300
ffc310
000208
00060c
030476
7fbfc7
001e03
001000
030000
7f880c
000ffe
000c0c
430c0c
7f8c0c
630c0c
630c0c
630c0c
630ffc
7f0c0c
630c0c
ENDCHAR
STARTCHAR ch-84
ENCODING 84
SWIDTH 1000 0
DWIDTH 24 0
BBX 24 24 0 -3
BITMAP
030000
7f8006
003fff
000306
018306
ffc306
000606
00060e
030c0c
7f887c
001018
006000
030000
7f900c
001ffe
00180c
43180c
7f980c
63180c
63180c
63180c
631ffc
7f180c
63180c
ENDCHAR
STARTCHAR ch-85
ENCODING 85
SWIDTH 1000 0
DWIDTH 24 0
BBX 24 24 0 -3
BITMAP
030000
7f800c
003ffe
000180
018180
ffc188
00018e
00218c
03118c
7f9998
001990
0019a0
030180
7f8186
007fff
000180
430180
7f8180
630180
630180
630180
630180
7f0180
630180
ENDCHAR
STARTCHAR ch-91
ENCODING 91
SWIDTH 1000 0
DWIDTH 24 0
BBX 24 24 0 -3
BITMAP
030818
7f8ffc
000c18
000c18
018c18
ffcc18
000c18
000c18
030ff8
7f8c18
000c18
000c18
030c18
7f8c18
000c18
000ff8
430c18
7f8c18
630c18
630c18
630c18
630c1a
7f7fff
630000
ENDCHAR
STARTCHAR ch-94
ENCODING 94
SWIDTH 1000 0
DWIDTH 24 0
BBX 24 24 0 -3
BITMAP
060000
7f0006
003fff
000006
030006
ff80c6
003fe6
000006
060006
7f10c6
001fe6
0018c6
0618c6
7f18c6
0018c6
001fc6
4318c6
7f9806
630006
630006
630006
630006
7f003e
63000c
ENDCHAR
STARTCHAR ch-96
ENCODING 96
SWIDTH 1000 0
DWIDTH 24 0
BBX 24 24 0 -3
BITMAP
060600
7f01c0
0000c0
000000
030180
ffbfc0
000180
000184
060187
7f0dc6
00fdcc
000dd0
060da0
7f0da0
0019a0
0019b0
461990
7f3198
66319c
66618f
66418e
668186
7f1f80
660700
ENDCHAR
STARTCHAR ch-98
ENCODING 98
SWIDTH 1000 0
DWIDTH 24 0
BBX 24 24 0 -3
BITMAP
030400
7f8700
000600
000600
018c06
ffcfff
001806
001006
032fe6
7f8c66
000c66
000c66
030fe6
7f8c66
000c66
000c66
430fe6
7f8c66
630c06
63000e
63000c
63001c
7f00f8
630030
ENDCHAR
STARTCHAR ch-99
ENCODING 99
SWIDTH 1000 0
DWIDTH 24 0
BBX 24 24 0 -3
BITMAP
030e00
7f8c0c
000c1e
000c38
00cce0
ffef00
000c02
000c02
030c03
7f8fff
0007fe
000000
030000
7f880c
000ffe
000c0c
418c0c
7fcc0c
618ffc
618c0c
618c0c
618c0c
7f8ffc
618c0c
ENDCHAR
STARTCHAR ch-102
ENCODING 102
SWIDTH 1000 0
DWIDTH 24 0
BBX 24 24 0 -3
BITMAP
0600e8
7f00c4
0000c6
0000c6
0300c0
ff80c6
007fff
0000c0
0600c0
7f00c0
0006c0
00ffc0
0618c0
7f18c0
001860
001860
461862
7f1862
661832
661b32
66fc1a
66701f
7e400f
660006
ENDCHAR
STARTCHAR ch-105
ENCODING 105
SWIDTH 1000 0
DWIDTH 24 0
BBX 24 24 0 -3
BITMAP
0601c0
7f0180
000180
00018c
033ffe
ff8180
000180
000180
060186
7f7fff
000000
000018
060018
7f7fff
000018
001018
430c18
7f8618
630618
630018
630018
630018
7f01f8
630030
ENDCHAR
STARTCHAR ch-107
ENCODING 107
SWIDTH 1000 0
DWIDTH 24 0
BBX 24 24 0 -3
BITMAP
0601c0
7f0180
001180
001186
033fff
ffb006
006004
006008
060060
7f03f0
003f00
000300
060300
7f0306
007fff
000300
430300
7f8300
630300
630302
630302
630303
7f03ff
6301fe
ENDCHAR
STARTCHAR ch-108
ENCODING 108
SWIDTH 1000 0
DWIDTH 24 0
BBX 24 24 0 -3
BITMAP
06000c
7f003e
0011f0
001f00
031800
ff9800
001800
001806
061fff
7f1800
001800
001800
061a0c
7f1bfe
001b0c
00130c
43130c
7fb30c
63230c
63230c
63430c
6303fc
7f030c
63030c
ENDCHAR
STARTCHAR ch-109
ENCODING 109
SWIDTH 1000 0
DWIDTH 24 0
BBX 24 24 0 -3
BITMAP
060800
7f0e00
000c30
001ff8
031860
ffb0c0
002080
004106
06bfff
7f3000
003000
003218
0633fc
7f3318
003318
003318
463318
7f3378
662330
662302
666302
664303
7e83ff
6601fe
ENDCHAR
STARTCHAR ch-110
ENCODING 110
SWIDTH 1000 0
DWIDTH 24 0
BBX 24 24 0 -3
BITMAP
030180
7f8180
000340
000340
018620
ffc630
000c18
00081c
06100f
7f2006
00dff8
000180
060180
7f0180
000198
001ffc
430180
7f8180
630180
630180
630180
630186
7f7fff
630000
ENDCHAR
STARTCHAR ch-112
ENCODING 112
SWIDTH 1000 0
DWIDTH 24 0
BBX 24 24 0 -3
BITMAP
0301c0
7f8180
000180
000180
018186
ffffff
000180
000180
030180
7f8180
00018c
003ffe
030000
7f8000
00100c
001ffe
43180c
7f980c
63180c
63180c
63180c
631ffc
7f180c
63180c
ENDCHAR
STARTCHAR ch-113
ENCODING 113
SWIDTH 1000 0
DWIDTH 24 0
BBX 24 24 0 -3
BITMAP
030018
7f807c
0001e0
003f80
018180
ffc180
000180
000186
037fff
7f8180
000180
000180
030180
7f918c
001ffe
00180c
43180c
7f980c
63180c
63180c
63180c
631ffc
7f180c
63180c
ENDCHAR
STARTCHAR ch-114
ENCODING 114
SWIDTH 1000 0
DWIDTH 24 0
BBX 24 24 0 -3
BITMAP
0300e0
7f80c0
0000c0
0000c6
019fff
ffc100
0001c0
000180
030110
7f921c
000c38
000630
030660
7f80c8
00018e
00031c
430618
7f8c30
633060
6300d0
63018c
630306
7f0c07
633003
ENDCHAR
STARTCHAR ch-115
ENCODING 115
SWIDTH 1000 0
DWIDTH 24 0
BBX 24 24 0 -3
BITMAP
030810
7f861c
000318
000310
018026
ffdfff
0000c0
0000c0
0300c0
7f80cc
001ffe
0000c0
0300c0
7f80c0
0000c0
0000c6
433fff
7f80c0
6300c0
6300c0
6300c0
6300c0
7f00c0
6300c0
ENDCHAR
STARTCHAR ch-124
ENCODING 124
SWIDTH 1000 0
DWIDTH 24 0
BBX 24 24 0 -3
BITMAP
062006
7f3fff
003000
003000
0330e0
ffb0c0
0030c4
0032c7
0632c6
7f32c6
0036c4
0036cc
0636c8
7f30c0
0030c0
0031a0
4621a0
7f21b0
666310
664318
66461c
66840f
7e080e
663006
ENDCHAR
STARTCHAR ch-130
ENCODING 130
SWIDTH 1000 0
DWIDTH 24 0
BBX 24 24 0 -3
BITMAP
060670
7f0660
000660
000660
030664
ff8667
006666
00366c
063670
7f3660
000660
000660
060e70
7f366c
00e666
006663
464663
7f0660
660e60
660c62
660c62
661863
7e307f
66c03e
ENDCHAR
STARTCHAR ch-132
ENCODING 132
SWIDTH 1000 0
DWIDTH 24 0
BBX 24 24 0 -3
BITMAP
0601c0
7f0180
00018c
003ffe
030180
ff8180
000180
000198
061ffc
7f0180
000180
000180
060186
7f7fff
0007a0
0005a0
460d90
7f0990
661998
66118f
66218e
66c186
7e0180
660180
ENDCHAR
STARTCHAR ch-133
ENCODING 133
SWIDTH 1000 0
DWIDTH 24 0
BBX 24 24 0 -3
BITMAP
0601c0
7f0180
001180
001d80
031980
ff998c
001ffe
003180
062180
7f4180
000180
000186
067fff
7f07a0
0007a0
000590
460d90
7f0998
66198c
66118f
662186
66c186
7e0180
660180
ENDCHAR
STARTCHAR ch-135
ENCODING 135
SWIDTH 1000 0
DWIDTH 24 0
BBX 24 24 0 -3
BITMAP
060380
7f0300
000300
000306
037fff
ff8640
000640
000420
060c30
7f081c
0017ef
002006
064000
7f3ffc
000600
000618
4307fc
7f8c18
630c18
630018
630038
630030
7f01f0
630060
ENDCHAR
STARTCHAR ch-137
ENCODING 137
SWIDTH 1000 0
DWIDTH 24 0
BBX 24 24 0 -3
BITMAP
082040
061070
0318e0
031880
000106
ffffff
030080
060040
060060
0dffb0
18001c
37ffef
600006
83ffc0
000000
03ffc0
000000
040060
07fff0
060060
060060
060060
07ffe0
060060
ENDCHAR
STARTCHAR ch-140
ENCODING 140
SWIDTH 1000 0
DWIDTH 24 0
BBX 24 24 0 -3
BITMAP
0301c0
7f8180
000180
000180
018186
ffffff
000180
000180
030180
7f818c
003ffe
000000
030000
7f8700
0006c0
000660
431668
7f9606
633603
633613
636613
636618
7f07f8
6303f0
ENDCHAR
STARTCHAR ch-141
ENCODING 141
SWIDTH 1000 0
DWIDTH 24 0
BBX 24 24 0 -3
BITMAP
060000
7f000c
003ffe
00030c
03030c
ff930c
000e0c
00070c
06058c
7f0d9c
000818
001078
062030
7f0100
0000c0
000660
460668
7f1606
661603
663613
663613
666618
7e67f8
6603f0
ENDCHAR
STARTCHAR ch-145
ENCODING 145
SWIDTH 1000 0
DWIDTH 24 0
BBX 24 24 0 -3
BITMAP
060800
7f0e00
000c0c
004ffe
032860
ffb860
001060
003060
063060
7f5060
009860
00186c
063bfe
7f3860
007860
005860
469860
7f1860
661860
661860
663860
663066
7ef7ff
666000
ENDCHAR
STARTCHAR ch-147
ENCODING 147
SWIDTH 1000 0
DWIDTH 24 0
BBX 24 24 0 -3
BITMAP
07000c
06047e
0667c0
fff600
060606
0607ff
07e630
fe0430
660c30
060830
3e1030
0cff30
000006
ffffff
000000
07ffe0
000000
07ffe0
000000
0ffff0
0c0030
0c0030
0ffff0
0c0030
ENDCHAR
STARTCHAR ch-149
ENCODING 149
SWIDTH 1000 0
DWIDTH 24 0
BBX 24 24 0 -3
BITMAP
0c000c
7e183e
00fdf0
001830
061030
ff3030
003130
002130
0c6130
7e4d32
00fd3f
00cd30
0c0d30
7e0930
008930
009930
465130
7f5132
6627ff
662000
665800
664fff
7e83fe
610000
ENDCHAR
STARTCHAR ch-152
ENCODING 152
SWIDTH 1000 0
DWIDTH 24 0
BBX 24 24 0 -3
BITMAP
060030
7f01f8
001f80
000180
030186
ffbfff
0003a0
000790
060598
7f098c
00118f
006186
060030
7f3ff8
000630
000636
46067f
7f0c66
660c06
660806
66180e
66100c
7e207c
664018
ENDCHAR
STARTCHAR ch-154
ENCODING 154
SWIDTH 1000 0
DWIDTH 24 0
BBX 24 24 0 -3
BITMAP
0301c4
7fa187
001186
00198c
018d88
ffcd90
000180
00118c
031ffe
7f980c
00180c
00180c
031ffc
7f980c
00180c
00180c
431ffc
7f980c
63180c
63180c
63180c
63180c
7f187c
631818
ENDCHAR
STARTCHAR ch-158
ENCODING 158
SWIDTH 1000 0
DWIDTH 24 0
BBX 24 24 0 -3
BITMAP
03000c
7f9ffe
000180
000180
018180
ffc198
001ffc
000318
030318
7f8318
000318
00031a
033fff
7f8000
000000
00080c
418ffe
7fcc0c
618c0c
618c0c
618c0c
618c0c
7f8ffc
618c0c
ENDCHAR
STARTCHAR ch-160
ENCODING 160
SWIDTH 1000 0
DWIDTH 24 0
BBX 24 24 0 -3
BITMAP
0600e8
7f00c6
0000c6
0000c0
01a0c6
ffffff
0030c0
0030c0
0630c8
7f30ce
003ecc
00324c
063248
7f3258
003250
003270
463220
7f3270
662e52
6626da
66608a
66410e
7e8607
610003
ENDCHAR
STARTCHAR ch-161
ENCODING 161
SWIDTH 1000 0
DWIDTH 24 0
BBX 24 24 0 -3
BITMAP
0600e8
7f00c6
0000c6
0000c0
0300c6
ffffff
0000c0
0000c0
0624c4
7f24c7
002446
002446
06ff4c
7f246c
002468
002428
462430
7f2452
66645a
6640da
66418a
66830e
7e0607
661803
ENDCHAR
STARTCHAR ch-163
ENCODING 163
SWIDTH 1000 0
DWIDTH 24 0
BBX 24 24 0 -3
BITMAP
030000
7f800c
003ffe
000180
018180
ffc180
000180
001190
031d9c
7f9998
001998
001190
0339b8
7fa9ac
002da6
004dc6
430180
7f8180
630180
630180
630180
630186
7fffff
630000
ENDCHAR
STARTCHAR ch-164
ENCODING 164
SWIDTH 1000 0
DWIDTH 24 0
BBX 24 24 0 -3
BITMAP
030218
7f83fc
000318
000318
019b18
ffdb18
001b18
001bf8
031b18
7f9800
001800
001ff8
031818
7f9818
000018
00001a
433fff
7f8000
630420
630718
630e0c
630c06
7f1807
636003
ENDCHAR
STARTCHAR ch-165
ENCODING 165
SWIDTH 1000 0
DWIDTH 24 0
BBX 24 24 0 -3
BITMAP
0300e0
7f88c0
000ec0
000cc0
018ccc
ffcffe
0018c0
0010c0
0320c0
7f80c0
0000c6
003fff
030000
7f8000
00080c
000ffe
430c0c
7f8c0c
630c0c
630c0c
630c0c
630c0c
7f0ffc
630c0c
ENDCHAR
STARTCHAR ch-166
ENCODING 166
SWIDTH 1000 0
DWIDTH 24 0
BBX 24 24 0 -3
BITMAP
03000c
7f9ffe
000018
000230
0181a0
ffc0c0
0010c6
001fff
0318c6
7f98c6
0018c6
001ffe
0318c6
7f98c6
0018c6
0018c6
431ffe
7f98c6
6318c6
6318c6
6318c6
6318c6
7f18de
63180c
ENDCHAR
STARTCHAR ch-168
ENCODING 168
SWIDTH 1000 0
DWIDTH 24 0
BBX 24 24 0 -3
BITMAP
060800
7f0e00
000c00
000806
031fff
ff9000
002000
005018
061ffc
7f1918
001918
001918
06191a
7f7fff
001918
001918
461918
7f1918
66191a
663fff
663030
660030
7e01f0
660060
ENDCHAR
STARTCHAR ch-172
ENCODING 172
SWIDTH 1000 0
DWIDTH 24 0
BBX 24 24 0 -3
BITMAP
031010
7f8c1c
000618
000630
018620
ffd04c
001ffe
00180c
03180c
7f980c
00180c
00180c
031ffc
7f986c
000460
000760
430660
7f8660
630662
630c62
630c62
630863
7f107f
63603e
ENDCHAR
STARTCHAR ch-173
ENCODING 173
SWIDTH 1000 0
DWIDTH 24 0
BBX 24 24 0 -3
BITMAP
0601c0
7f0180
000186
007fff
030180
ff8180
00018c
003ffe
060000
7f2006
003fff
006006
066004
7f0e70
000c60
000c60
460c60
7f0c60
660c60
660c62
661862
661863
7e307f
66c03e
ENDCHAR
STARTCHAR ch-176
ENCODING 176
SWIDTH 1000 0
DWIDTH 24 0
BBX 24 24 0 -3
BITMAP
030400
7f8720
000638
000630
018c20
ffc846
001fff
0018c0
0638c0
7f58c0
0098cc
001ffe
0618c0
7f18c0
0018c0
0018cc
431ffe
7f98c0
6318c0
6318c0
6318c0
6318c6
7f1fff
631800
ENDCHAR
STARTCHAR ch-178
ENCODING 178
SWIDTH 1000 0
DWIDTH 24 0
BBX 24 24 0 -3
BITMAP
03100c
7f9ffe
00198c
00198c
01998c
ffdffc
00198c
00198c
03198c
7f998c
001ffc
00198c
030180
7f8182
007fff
0007a0
4307a0
7f8d90
630d98
63198c
63118f
632186
7f4186
630180
ENDCHAR
STARTCHAR ch-185
ENCODING 185
SWIDTH 1000 0
DWIDTH 24 0
BBX 24 24 0 -3
BITMAP
060670
7f0660
000660
000660
018666
fffe7f
000660
000660
060660
7f066c
007e7e
000660
060660
7f0660
000660
00fe66
46767f
7f4660
660660
660c60
660c60
661860
7e3060
60c060
ENDCHAR
STARTCHAR ch-188
ENCODING 188
SWIDTH 1000 0
DWIDTH 24 0
BBX 24 24 0 -3
BITMAP
0300e0
7f80c0
0010c0
0010c6
01bfff
ffe006
006004
000818
030ffc
7f8c18
000c18
000c18
030ff8
7f8c18
000c18
000c18
430c18
7f8ff8
630c18
630c18
630c18
630c1a
7f7fff
630000
ENDCHAR
STARTCHAR ch-191
ENCODING 191
SWIDTH 1000 0
DWIDTH 24 0
BBX 24 24 0 -3
BITMAP
062006
7f3fff
003006
003006
0331c6
ffb186
003186
0037f6
063186
7f3186
003186
0037f6
063006
7f3006
0033e6
003226
463226
7f3226
662226
6623e6
666006
664006
7e803e
61000c
ENDCHAR
STARTCHAR ch-194
ENCODING 194
SWIDTH 1000 0
DWIDTH 24 0
BBX 24 24 0 -3
BITMAP
030400
7f8700
00060c
0007fe
01860c
ffc60c
000c0c
000c1c
030818
7f90f8
002030
000100
031386
7f9e3f
001806
001806
431806
7f9f3e
631806
631806
631806
631806
7f1ffe
631806
ENDCHAR
STARTCHAR ch-196
ENCODING 196
SWIDTH 1000 0
DWIDTH 24 0
BBX 24 24 0 -3
BITMAP
0601c0
7f0180
000186
007fff
030000
ff8830
000ff8
000c30
060c30
7f0c30
000ff0
000000
060018
7f3ffc
000030
000140
430186
7f7fff
630180
630180
630180
630180
7f0f80
630300
ENDCHAR
STARTCHAR ch-199
ENCODING 199
SWIDTH 1000 0
DWIDTH 24 0
BBX 24 24 0 -3
BITMAP
0601c0
7f0188
00098e
00099c
0311a0
ffb180
003340
000330
060618
7f0c0c
00180e
0061c6
060180
7f0188
00098e
00098c
461190
7f3140
663340
660220
660638
660c1f
7e180e
666006
ENDCHAR
STARTCHAR ch-203
ENCODING 203
SWIDTH 1000 0
DWIDTH 24 0
BBX 24 24 0 -3
BITMAP
0300e0
7f80c0
0000c2
003fff
0180c0
ffc0c4
001ffe
0000c0
0300c2
7fbfff
000000
00080c
030ffe
7f8c0c
000c0c
000ffc
430c0c
7f8c0c
630ffc
630c0c
630c0c
630c0c
7f0c7c
630c18
ENDCHAR
STARTCHAR ch-204
ENCODING 204
SWIDTH 1000 0
DWIDTH 24 0
BBX 24 24 0 -3
BITMAP
0601c0
7f0180
000186
007fff
030180
ffa18c
003ffe
00318c
06318c
7f318c
003ffc
00318c
06318c
7f318c
003ffc
0033ac
4607a0
7f0790
660d90
660d98
66198f
66318e
7ec186
660180
ENDCHAR
STARTCHAR ch-205
ENCODING 205
SWIDTH 1000 0
DWIDTH 24 0
BBX 24 24 0 -3
BITMAP
030018
7f80fc
001fc0
000104
0190c7
ffcc4e
000408
000010
031ffc
7f818c
00018c
00018c
033fff
7f818c
00018c
00018c
431ffc
7f818c
630180
630180
630180
630180
7f0f80
630300
ENDCHAR
STARTCHAR ch-207
ENCODING 207
SWIDTH 1000 0
DWIDTH 24 0
BBX 24 24 0 -3
BITMAP
0c0000
7e0006
01ffff
006600
066600
ff660c
0067fe
007e8c
0c668c
7e668c
006688
006658
0c7e58
7e6650
006670
006620
466670
7e6e50
667658
67e68c
66c68f
668706
7e0606
660600
ENDCHAR
STARTCHAR ch-210
ENCODING 210
SWIDTH 1000 0
DWIDTH 24 0
BBX 24 24 0 -3
BITMAP
0300e0
7f80c0
0000c0
0000c6
01bfff
ffc000
000000
00080c
030ffe
7f8c0c
000c0c
000c0c
030c0c
7f8ffc
000ccc
0000c0
4308c0
7f8ed0
630ccc
6318c6
6310c7
6320c3
7f47c0
600180
ENDCHAR
STARTCHAR ch-214
ENCODING 214
SWIDTH 1000 0
DWIDTH 24 0
BBX 24 24 0 -3
BITMAP
060300
7f0300
000680
000680
030c40
ff8c60
001838
00101f
062fee
7f4006
008000
00200c
063ffe
7f324c
00324c
00324c
46324c
7f3ffc
66324c
66324c
66324c
66324c
7e325c
66300c
ENDCHAR
STARTCHAR ch-218
ENCODING 218
SWIDTH 1000 0
DWIDTH 24 0
BBX 24 24 0 -3
BITMAP
0601c0
7f0180
002180
002186
037fff
ffe006
006004
000018
063ffc
7f0180
000180
000180
060180
7f1198
001dfc
001980
461980
7f1980
661980
661580
663380
6621e0
7e40ff
66803e
ENDCHAR
STARTCHAR ch-219
ENCODING 219
SWIDTH 1000 0
DWIDTH 24 0
BBX 24 24 0 -3
BITMAP
0601c0
7f0180
000180
00218c
033ffe
ffb18c
00318c
00318c
063ffc
7f318c
00318c
00318c
06318c
7f3ffc
00334c
000340
460360
7f0620
660630
660c30
660c18
66181f
7e300e
66c006
ENDCHAR
STARTCHAR ch-220
ENCODING 220
SWIDTH 1000 0
DWIDTH 24 0
BBX 24 24 0 -3
BITMAP
030c90
7f8c90
000c90
000c92
01bfff
ffcc90
000c90
000c90
030cf0
7f8c00
000c04
000ffe
030c00
7f81c0
000186
007fff
4303a0
7f87a0
630590
630d98
63198f
63318e
7f4186
630180
ENDCHAR
STARTCHAR ch-222
ENCODING 222
SWIDTH 1000 0
DWIDTH 24 0
BBX 24 24 0 -3
BITMAP
060006
7f7fff
000000
000000
033ffe
ffb006
003006
003006
063ffe
7f3000
003006
003fff
063926
7f3926
007926
007926
465ffe
7ed926
669926
671926
661926
661926
7e181e
66180c
ENDCHAR
STARTCHAR ch-224
ENCODING 224
SWIDTH 1000 0
DWIDTH 24 0
BBX 24 24 0 -3
BITMAP
0601c0
7f0180
002180
002186
037fff
ffe006
006004
000018
063ffc
7f0000
000000
001ff8
061818
7f1818
001818
001ff8
461818
7f1818
661818
661ff8
660000
660006
7effff
660000
ENDCHAR
STARTCHAR ch-225
ENCODING 225
SWIDTH 1000 0
DWIDTH 24 0
BBX 24 24 0 -3
BITMAP
060840
7f0e40
000c20
000c30
031818
ff901c
003fff
004606
060600
7f0ff0
000c30
000030
060060
7f03e0
0000c0
00200c
463ffe
7f324c
66324c
66324c
66324c
66324c
7effff
660000
ENDCHAR
STARTCHAR ch-226
ENCODING 226
SWIDTH 1000 0
DWIDTH 24 0
BBX 24 24 0 -3
BITMAP
062000
7f2006
003fff
006006
0361c4
ff8180
007ffe
000180
06218c
7f3ffe
00318c
00318c
063ffc
7f318c
00318c
003ffc
46318c
7f0180
660186
66ffff
660180
660180
7e0180
660180
ENDCHAR
STARTCHAR ch-228
ENCODING 228
SWIDTH 1000 0
DWIDTH 24 0
BBX 24 24 0 -3
BITMAP
031326
7f9fbf
001326
001326
019326
ffd326
001f3e
000000
030008
7f8ffc
000000
000002
033fff
7f8600
00060c
000ffe
430c0c
7f8c0c
63000c
63001c
630018
630038
7f01f0
630060
ENDCHAR
STARTCHAR ch-230
ENCODING 230
SWIDTH 1000 0
DWIDTH 24 0
BBX 24 24 0 -3
BITMAP
0601c0
7f0180
000186
007fff
030820
ff8438
000630
002620
062046
7f3fff
006004
0061c8
060180
7f218c
003ffe
00318c
46318c
7f318c
66318c
66318c
6631bc
663198
7e0180
660180
ENDCHAR
STARTCHAR ch-231
ENCODING 231
SWIDTH 1000 0
DWIDTH 24 0
BBX 24 24 0 -3
BITMAP
061c70
7f1860
001864
001867
031f6e
ff9870
001862
001862
061b63
7f7c7f
00303e
002100
0601c0
7f118c
001ffe
00180c
46180c
7f180c
661ffc
66180c
66180c
66180c
7e1ffc
66180c
ENDCHAR
STARTCHAR ch-235
ENCODING 235
SWIDTH 1000 0
DWIDTH 24 0
BBX 24 24 0 -3
BITMAP
0601c0
7f0180
000186
007fff
030180
ff8180
002184
003ffe
062184
7f2994
002594
0025a4
062184
7f3ffc
0023a4
0007a0
460790
7f0d90
660d98
66198c
66118f
662186
7ec186
660180
ENDCHAR
STARTCHAR ch-237
ENCODING 237
SWIDTH 1000 0
DWIDTH 24 0
BBX 24 24 0 -3
BITMAP
060180
7f0180
000340
000320
030630
ff8c1c
00180f
006026
060ff0
7f0000
00220e
003f4c
06224c
7f224c
003e4c
00224c
46224c
7f3e4c
66224c
66220c
66220c
66220c
7e2e3c
662618
ENDCHAR
STARTCHAR ch-238
ENCODING 238
SWIDTH 1000 0
DWIDTH 24 0
BBX 24 24 0 -3
BITMAP
060100
7f41c0
002180
003306
0333ff
ff8406
0008c4
0000c8
0604c0
7f19a0
00f1a0
006310
06421c
7f040f
000806
003000
430ffc
7f8c0c
630c0c
630c0c
630c0c
630c0c
7f0ffc
630c0c
ENDCHAR
STARTCHAR ch-241
ENCODING 241
SWIDTH 1000 0
DWIDTH 24 0
BBX 24 24 0 -3
BITMAP
0301c0
7f8180
000198
000ffc
018318
ffc318
00031a
003fff
030000
7f880c
000ffe
000c0c
030c0c
7f8ffc
000030
000034
431ffe
7f8630
630630
630636
633fff
630030
7f0030
630030
ENDCHAR
STARTCHAR ch-243
ENCODING 243
SWIDTH 1000 0
DWIDTH 24 0
BBX 24 24 0 -3
BITMAP
0300e0
7f80c0
0000cc
001ffe
018010
ffc41c
000218
000310
030330
7f8026
003fff
000000
030000
7f880c
000ffe
000c0c
430c0c
7f8c0c
630ffc
630c0c
630c0c
630c0c
7f0ffc
630c0c
ENDCHAR
STARTCHAR ch-247
ENCODING 247
SWIDTH 1000 0
DWIDTH 24 0
BBX 24 24 0 -3
BITMAP
062008
7f3ffc
002008
0020c8
0323e8
ffaf08
002108
002108
062108
7f2fe8
002928
002928
062928
7f2928
002fe8
002108
46210a
7f610a
66414a
66416e
665fe6
66ce26
7e8803
610003
ENDCHAR
STARTCHAR ch-248
ENCODING 248
SWIDTH 1000 0
DWIDTH 24 0
BBX 24 24 0 -3
BITMAP
030380
7f8304
000307
000326
01bffc
ffc30c
000318
000330
030366
7fffff
000180
000300
030600
7f8c0c
0017fe
00660c
43060c
7f860c
6307fc
63060c
63060c
63060c
7f07fc
63060c
ENDCHAR
STARTCHAR ch-250
ENCODING 250
SWIDTH 1000 0
DWIDTH 24 0
BBX 24 24 0 -3
BITMAP
0601c0
7f0180
000186
007fff
030820
ff8438
000630
002642
063fff
7f3040
003070
0030e0
063190
7f361c
003038
003070
4631c4
7f3607
66600e
66601c
664038
66c0e0
7e8380
611c00
ENDCHAR
STARTCHAR ch-254
ENCODING 254
SWIDTH 1000 0
DWIDTH 24 0
BBX 24 24 0 -3
BITMAP
060e38
7f0c30
000c36
007fff
030c30
ff8c30
000200
000380
060300
7f0306
00ffff
000600
060400
7f0c00
00080c
001ffe
431c0c
7fac0c
634c0c
630c0c
630c0c
630ffc
7f0c0c
630c0c
ENDCHAR
STARTCHAR ch-256
ENCODING 256
SWIDTH 1000 0
DWIDTH 24 0
BBX 24 24 0 -3
BITMAP
060e38
7f0c30
000c32
007fff
030c30
ff8c30
000c30
000ff0
060c30
7f0c30
000c30
000ff0
060180
7f0186
007fff
000380
4607c0
7f05a0
660db0
66199c
66318f
66c186
7e0180
660180
ENDCHAR
STARTCHAR ch-257
ENCODING 257
SWIDTH 1000 0
DWIDTH 24 0
BBX 24 24 0 -3
BITMAP
03100c
7f9ffe
00180c
00180c
019ffc
ffd80c
00180c
00180c
031ffc
7f8400
000700
000e06
030fff
7f9806
0038c6
0059e6
431e06
7f9846
631866
631fe6
630fcc
63000c
7f00fc
630038
ENDCHAR
STARTCHAR ch-258
ENCODING 258
SWIDTH 1000 0
DWIDTH 24 0
BBX 24 24 0 -3
BITMAP
031006
7f9fff
0018c6
0018c6
019ffe
ffd8c6
0018c6
0018c6
031ffe
7f9806
000000
000ffc
030c0c
7f8c0c
000ffc
000c0c
430c0c
7f8c0c
630ffc
630c0c
630c0c
630c0c
7f0c7c
630c18
ENDCHAR
STARTCHAR ch-260
ENCODING 260
SWIDTH 1000 0
DWIDTH 24 0
BBX 24 24 0 -3
BITMAP
232210
3f939c
331b18
331b20
337ffe
330680
330442
3fffff
330820
331018
332fef
334006
33bff8
3f0000
331ff0
330000
331ff0
330000
233ff8
233018
633018
433018
4f3ff8
863018
ENDCHAR
STARTCHAR ch-263
ENCODING 263
SWIDTH 1000 0
DWIDTH 24 0
BBX 24 24 0 -3
BITMAP
001c00
201806
3fffff
600006
c08104
cffff0
008100
0ffff0
008106
ffffff
030040
067e20
0c0010
1ffffc
30000f
c3ffc6
000000
03ffc0
000000
07ffe0
060060
060060
07ffe0
060060
ENDCHAR
STARTCHAR ch-268
ENCODING 268
SWIDTH 1000 0
DWIDTH 24 0
BBX 24 24 0 -3
BITMAP
030006
7fbfff
00000c
00000c
018f8c
ffc88c
00088c
000f8c
03000c
7f807c
000018
000006
033fff
7f800c
00000c
000f8c
43088c
7f888c
63088c
630f8c
63000c
63000c
7f007c
630018
ENDCHAR
STARTCHAR ch-270
ENCODING 270
SWIDTH 1000 0
DWIDTH 24 0
BBX 24 24 0 -3
BITMAP
0600e0
7f08c8
0044ce
0026cc
0336c8
ffb0d0
0000c0
0000c6
061fff
7f00c0
0030c0
01f9e0
0631d0
7f33c8
0032cc
0034c6
4638c6
7f30c0
6630c0
6630c0
666800
67c7ff
7ec1fe
608000
ENDCHAR
STARTCHAR ch-272
ENCODING 272
SWIDTH 1000 0
DWIDTH 24 0
BBX 24 24 0 -3
BITMAP
060200
7f0180
0000d0
0006dc
030618
ff9638
001634
003662
0636c3
7f6793
006718
000ff8
0633f0
7f0000
00200c
003ffe
46324c
7f324c
66324c
66324c
66324c
66324c
7effff
660000
ENDCHAR
STARTCHAR ch-276
ENCODING 276
SWIDTH 1000 0
DWIDTH 24 0
BBX 24 24 0 -3
BITMAP
0601c0
7f018c
0001fe
000180
032186
ffbfff
003186
003184
0631f0
7f3f82
003183
0031ff
0630fe
7f3000
00340c
0037fe
463600
7f260c
6627fe
666600
664600
66460c
7e87fe
660600
ENDCHAR
STARTCHAR ch-278
ENCODING 278
SWIDTH 1000 0
DWIDTH 24 0
BBX 24 24 0 -3
BITMAP
06200c
7f3ffe
00318c
00318c
033ffc
ffb18c
00318c
003ffc
060860
7f0e60
000c7f
00183f
063700
7f4630
0007f8
000c30
460860
7f1460
6662c0
660180
660360
66063f
7e181e
666006
ENDCHAR
STARTCHAR ch-279
ENCODING 279
SWIDTH 1000 0
DWIDTH 24 0
BBX 24 24 0 -3
BITMAP
0601c0
7f0180
000186
007fff
030810
ff8418
002610
002226
063fff
7f6004
006388
000300
060306
7f7fff
000300
000318
4607fc
7f0618
660618
660c18
660c38
661830
7e31f0
66c060
ENDCHAR
STARTCHAR ch-281
ENCODING 281
SWIDTH 1000 0
DWIDTH 24 0
BBX 24 24 0 -3
BITMAP
062010
7f181c
000c18
000c20
037fff
ff8440
00044c
003ffe
06044c
7f044c
00ffff
00044c
06044c
7f044c
003ffc
00044c
460c40
7f0c60
661c50
66145c
66344f
666446
7e8442
660440
ENDCHAR
STARTCHAR ch-282
ENCODING 282
SWIDTH 1000 0
DWIDTH 24 0
BBX 24 24 0 -3
BITMAP
062010
7f181c
000c18
000c30
030020
ff8046
007fff
000820
060e20
7f0c10
000c18
00180c
06100f
7f2006
004000
003ffc
46324c
7f324c
66324c
66324c
66324c
66324c
7effff
660000
ENDCHAR
STARTCHAR ch-283
ENCODING 283
SWIDTH 1000 0
DWIDTH 24 0
BBX 24 24 0 -3
BITMAP
060738
7f0630
000630
007fff
030630
ff8630
003ffe
000630
060630
7f7fff
000080
00108c
061ffe
7f188c
00188c
001ffc
46188c
7f188c
667fff
66180c
66180c
66180c
7e187c
661818
ENDCHAR
STARTCHAR ch-285
ENCODING 285
SWIDTH 1000 0
DWIDTH 24 0
BBX 24 24 0 -3
BITMAP
0c100e
7e1c0c
00180c
00520c
067f0c
ff420c
00420c
007eff
0c420c
7e420c
007e8c
00424c
0c426c
7e426c
01fe6c
00e60c
460e0c
7f0a0c
661a0c
66120c
66220c
66420c
7e9e7c
660c18
ENDCHAR
STARTCHAR ch-288
ENCODING 288
SWIDTH 1000 0
DWIDTH 24 0
BBX 24 24 0 -3
BITMAP
060100
7f01c0
00038c
0007fe
030c1c
ff9b38
006170
0018e0
0609c0
7f0700
001c00
007000
061818
7f1ffc
001180
002186
46ffff
7f0180
660180
66398e
66318c
66318c
7e3ffc
66300c
ENDCHAR
STARTCHAR ch-289
ENCODING 289
SWIDTH 1000 0
DWIDTH 24 0
BBX 24 24 0 -3
BITMAP
060018
7f01fc
003f80
000208
03210e
ff918c
001998
001810
060020
7f3ffc
000180
000180
060186
7f7fff
000180
000180
46398e
7f318c
66318c
66318c
66318c
663ffc
7e300c
66300c
ENDCHAR
STARTCHAR ch-294
ENCODING 294
SWIDTH 1000 0
DWIDTH 24 0
BBX 24 24 0 -3
BITMAP
060430
fff7f8
060630
7fe43f
00081f
3fe000
222ffc
222218
3fe130
6003c0
401c7f
80000e
07ffe0
000000
ffffff
000000
07ffe0
000000
07ffe0
000000
0ffff0
0c0030
0c0030
0ffff0
ENDCHAR
STARTCHAR ch-296
ENCODING 296
SWIDTH 1000 0
DWIDTH 24 0
BBX 24 24 0 -3
BITMAP
060e38
7f0c30
000c36
007fff
030c30
ff8c30
003ffc
00300c
06300c
7f3ffc
00300c
00300c
06300c
7f3ffc
000180
000180
460186
7f7fff
660340
660720
660638
660c1f
7e180e
666006
ENDCHAR
STARTCHAR ch-299
ENCODING 299
SWIDTH 1000 0
DWIDTH 24 0
BBX 24 24 0 -3
BITMAP
0601c0
7f0180
000186
007fff
030820
ff8438
000630
000620
062046
7f3fff
003006
0031c6
063186
7f37f6
003186
003186
4633e6
7f3226
663226
663226
6633e6
663006
7e301e
66300c
ENDCHAR
STARTCHAR ch-300
ENCODING 300
SWIDTH 1000 0
DWIDTH 24 0
BBX 24 24 0 -3
BITMAP
060204
7f7ffe
000204
002244
031a34
ff8a14
000204
000e1c
0672e4
7f2244
000700
000680
060c60
7f1838
00321f
00c706
460c40
7f30e0
660188
66061c
661870
6601c0
7e0700
663800
ENDCHAR
STARTCHAR ch-307
ENCODING 307
SWIDTH 1000 0
DWIDTH 24 0
BBX 24 24 0 -3
BITMAP
062006
7f3fff
003000
003000
0331f8
ffb108
003108
003108
063108
7f31f8
003000
003000
06379e
7f3492
003492
003492
463492
7f3492
66379e
663000
663000
663006
7e3fff
663000
ENDCHAR
STARTCHAR ch-313
ENCODING 313
SWIDTH 1000 0
DWIDTH 24 0
BBX 24 24 0 -3
BITMAP
060770
7f0660
000666
007fff
030660
ff8660
000000
00200c
063ffe
7f318c
00318c
00318c
063ffc
7f318c
000180
000188
463ffc
7f0180
660188
663ffc
660180
660182
7effff
660000
ENDCHAR
STARTCHAR ch-318
ENCODING 318
SWIDTH 1000 0
DWIDTH 24 0
BBX 24 24 0 -3
BITMAP
061030
7f1ff8
001830
001830
031ff0
ff9830
001830
001ff0
060000
7f7ffc
004444
004444
067ffc
7f0000
000030
007ff8
461030
7f0860
6606c0
660380
6606e0
660c7f
7e301e
61c006
ENDCHAR
STARTCHAR ch-321
ENCODING 321
SWIDTH 1000 0
DWIDTH 24 0
BBX 24 24 0 -3
BITMAP
060e38
7f0c30
000c36
007fff
030c30
ff8c30
000000
007ffe
061188
7f1188
001188
00ffff
061188
7f1188
001188
007ffe
460180
7f0180
66018c
667ffe
660180
660180
7e0180
660180
ENDCHAR
STARTCHAR ch-329
ENCODING 329
SWIDTH 1000 0
DWIDTH 24 0
BBX 24 24 0 -3
BITMAP
060188
7f3f8c
000358
004352
032627
ffb62c
003c10
000818
0617ec
7f200f
004006
001ff8
061818
7f1818
001818
001ff8
460010
7f201c
661818
660c30
660c20
660046
7effff
660000
ENDCHAR
STARTCHAR ch-332
ENCODING 332
SWIDTH 1000 0
DWIDTH 24 0
BBX 24 24 0 -3
BITMAP
060030
7f01f8
003f84
000207
032186
ff988c
000808
001ff0
061830
7f1830
001830
001ffc
06180c
7f180c
00180c
001fff
463003
7f3023
662093
662a53
664946
665906
7e983e
66000c
ENDCHAR
STARTCHAR ch-334
ENCODING 334
SWIDTH 1000 0
DWIDTH 24 0
BBX 24 24 0 -3
BITMAP
060018
7f3ffc
000038
000660
030186
ffffff
0006c4
000cc8
0670c0
7f07c0
004186
007fff
066666
7f6666
006c7e
00683e
467006
7f67e6
666666
666666
6667e6
666006
7e603e
66600c
ENDCHAR
STARTCHAR ch-335
ENCODING 335
SWIDTH 1000 0
DWIDTH 24 0
BBX 24 24 0 -3
BITMAP
0611c8
7f198c
003198
0041e0
0369b4
ffad96
00198c
001188
062592
7fffff
0072b9
0040a4
060082
7f7fff
006080
006088
4670cc
7f6c58
666670
666622
664072
66c0da
7e830f
610c03
ENDCHAR
STARTCHAR ch-342
ENCODING 342
SWIDTH 1000 0
DWIDTH 24 0
BBX 24 24 0 -3
BITMAP
060618
7f0410
000412
007fff
032490
ffa490
002492
00ffff
061428
7f1428
003569
00264f
062486
7f4000
001ffc
00180c
46180c
7f180c
661ffc
66180c
66180c
66180c
7e1ffc
66180c
ENDCHAR
STARTCHAR ch-344
ENCODING 344
SWIDTH 1000 0
DWIDTH 24 0
BBX 24 24 0 -3
BITMAP
0c1c70
7e1860
001868
00ffe6
060263
ff4363
002260
002260
0c0466
7fffff
000060
000060
0c7e64
7e4267
004266
00422c
467e2c
7f4238
664212
66423a
667e6a
6600ce
7e0307
660c03
ENDCHAR
STARTCHAR ch-346
ENCODING 346
SWIDTH 1000 0
DWIDTH 24 0
BBX 24 24 0 -3
BITMAP
060006
7f7fff
000220
000220
033ffe
ffb226
003226
003226
063ffe
7f0000
001018
001ffc
061818
7f1818
001ff8
001818
461818
7f1ff8
660180
660186
66ffff
660180
7e0180
660180
ENDCHAR
STARTCHAR ch-347
ENCODING 347
SWIDTH 1000 0
DWIDTH 24 0
BBX 24 24 0 -3
BITMAP
060c18
7f0810
000912
007fff
030810
ff8810
000912
007fff
061428
7f1228
003364
002347
064082
7f0000
001ffc
00180c
46180c
7f180c
661ffc
66180c
66180c
66180c
7e1ffc
66180c
ENDCHAR
STARTCHAR ch-348
ENCODING 348
SWIDTH 1000 0
DWIDTH 24 0
BBX 24 24 0 -3
BITMAP
061020
7f0c38
000630
000624
033ffe
ff8240
002248
00124e
061a4c
7f1a48
000250
000246
067fff
7f0000
000000
000ff8
430c18
7f8c18
630ff8
630c18
630c18
630c18
7f0ff8
630c18
ENDCHAR
STARTCHAR ch-351
ENCODING 351
SWIDTH 1000 0
DWIDTH 24 0
BBX 24 24 0 -3
BITMAP
060830
7f0ff8
000c30
000c30
030c30
ff8ff0
000000
000000
063e7c
7f2244
002244
002244
063e7c
7f0180
000186
00ffff
460380
7f07c0
6605a0
660db0
66199c
66318f
7ec186
660180
ENDCHAR
STARTCHAR ch-358
ENCODING 358
SWIDTH 1000 0
DWIDTH 24 0
BBX 24 24 0 -3
BITMAP
0cc100
0889c0
fffd86
0881ff
180318
1fe298
3024b0
5f2060
9120d8
11218f
1fe606
00c000
0ffff0
000006
ffffff
000000
0ffff0
000000
0ffff0
000000
0ffff0
0c0030
0c0030
0ffff0
ENDCHAR
STARTCHAR ch-363
ENCODING 363
SWIDTH 1000 0
DWIDTH 24 0
BBX 24 24 0 -3
BITMAP
060800
7f0c30
000ff8
001820
031046
ffbfff
007330
003330
06323e
7f341e
003800
0033f8
063000
7f3ffe
003000
0037fc
462000
7f27fc
666000
664ffe
664c06
668c06
7e0ffe
660c06
ENDCHAR
STARTCHAR ch-364
ENCODING 364
SWIDTH 1000 0
DWIDTH 24 0
BBX 24 24 0 -3
BITMAP
2060e0
3ff0c4
306ffe
306210
3fe330
300122
301fff
7fe0c0
5860c4
586ffe
9fe0c0
0000c0
01ff00
000006
ffffff
000000
07ffe0
000000
07ffe0
000000
0ffff0
0c0030
0c0030
0ffff0
ENDCHAR
STARTCHAR ch-367
ENCODING 367
SWIDTH 1000 0
DWIDTH 24 0
BBX 24 24 0 -3
BITMAP
061006
7f1fff
001926
001926
031926
ff9ffe
0000c0
0000c4
061ffe
7f00c0
0000c2
003fff
060408
7f0208
000212
003fff
4600c0
7f00c0
6600c4
661ffe
6600c0
6600c0
7e00c0
6600c0
ENDCHAR
STARTCHAR ch-368
ENCODING 368
SWIDTH 1000 0
DWIDTH 24 0
BBX 24 24 0 -3
BITMAP
060830
7f0620
000244
007ffe
030180
ff8180
003ffc
000180
060182
7f7fff
000000
000668
061f66
7f6c62
000c60
00ffff
460c64
7f0c26
660f2c
66fc18
666c3a
660c6e
7e7d87
661803
ENDCHAR
STARTCHAR ch-369
ENCODING 369
SWIDTH 1000 0
DWIDTH 24 0
BBX 24 24 0 -3
BITMAP
010180
00c1c0
00c20c
7ffffe
001800
1ffff8
001800
001806
ffffff
001800
001800
3f18fc
001800
ffdbff
001800
3f18fc
001800
3f18fc
001800
7f99fe
619986
619986
7f99fe
619986
ENDCHAR
STARTCHAR ch-370
ENCODING 370
SWIDTH 1000 0
DWIDTH 24 0
BBX 24 24 0 -3
BITMAP
0601c0
7f0180
00018c
003ffe
030800
ff8e30
000c0c
001a46
066246
7f1ff8
000240
000240
061ff8
7f0240
000246
007fff
460644
7f0c46
661c2c
663430
66c4d8
663f1c
7e1c0f
661006
ENDCHAR
STARTCHAR ch-372
ENCODING 372
SWIDTH 1000 0
DWIDTH 24 0
BBX 24 24 0 -3
BITMAP
060030
7f4020
0033fe
001a22
031a22
ff83fe
000020
0007ff
060000
7f01fc
00198c
00fd8c
0619fc
7f1980
001980
0019fc
46198c
7f198c
6619fc
661800
661c00
66f7ff
7e61fe
664000
ENDCHAR
STARTCHAR ch-375
ENCODING 375
SWIDTH 1000 0
DWIDTH 24 0
BBX 24 24 0 -3
BITMAP
060738
7f0632
007fff
000630
031040
ff9864
001ffe
003840
063ffc
7f5840
009ffc
001840
061842
7f1fff
001800
000018
433ffc
7f8418
630230
630360
6301c0
630370
7f0e3f
63700e
ENDCHAR
STARTCHAR ch-381
ENCODING 381
SWIDTH 1000 0
DWIDTH 24 0
BBX 24 24 0 -3
BITMAP
013c00
27b00c
3c3efe
30300c
3f30fc
303e0c
30060c
3f66fc
30660c
30660c
ffffff
060020
0eff10
0c0018
1ffffc
30000f
c7ffe6
000000
07ffe0
000000
0ffff0
0c0030
0c0030
0ffff0
ENDCHAR
STARTCHAR ch-384
ENCODING 384
SWIDTH 1000 0
DWIDTH 24 0
BBX 24 24 0 -3
BITMAP
0601c0
7f0186
007fff
000180
031ffc
ff8000
003ffe
002242
062c7a
7f2002
003ffe
000000
061004
7f1ffe
001004
001ffc
461004
7f1ffc
661004
661ffc
660800
660e38
7e1c0e
666006
ENDCHAR
STARTCHAR ch-387
ENCODING 387
SWIDTH 1000 0
DWIDTH 24 0
BBX 24 24 0 -3
BITMAP
060c18
7f0810
007f7e
000810
030810
ffffff
001830
001628
06324c
7f6087
009ffe
00180c
06180c
7f1ffc
00180c
00180c
431ffc
7f980c
63180c
631ffc
630400
630e38
7f3c0e
60e006
ENDCHAR
STARTCHAR ch-394
ENCODING 394
SWIDTH 1000 0
DWIDTH 24 0
BBX 24 24 0 -3
BITMAP
080008
0c7e0c
580058
64ff64
2e002e
187e18
220022
ff7eff
690069
087e08
2a424c
39426b
694249
887e88
090008
018000
03fff8
060380
0d0700
30ce00
007800
00efc0
0781ff
f8001e
ENDCHAR
STARTCHAR ch-396
ENCODING 396
SWIDTH 1000 0
DWIDTH 24 0
BBX 24 24 0 -3
BITMAP
060e38
7f0c30
000c36
007fff
030c30
ff8c30
000ff0
000000
060812
7f0bd3
007a56
000a58
060a50
7f0a52
001a52
00ebd3
46481f
7f080e
660000
661248
661224
662326
7e6333
666333
ENDCHAR
STARTCHAR ch-398
ENCODING 398
SWIDTH 1000 0
DWIDTH 24 0
BBX 24 24 0 -3
BITMAP
100420
1a7e34
1b0036
120024
320264
247f4a
7f80ff
6400c8
a40548
247e48
25004a
3f807f
240448
247e48
240048
25004a
3fc67f
247f48
246648
246648
246648
25664a
3ffe7f
206640
ENDCHAR
STARTCHAR ch-400
ENCODING 400
SWIDTH 1000 0
DWIDTH 24 0
BBX 24 24 0 -3
BITMAP
208410
38c718
310620
3ff7ff
610c20
7feffc
a11420
3fe7fc
210420
3fffff
200000
0ffff0
000002
ffffff
000000
0ffff0
000000
0ffff0
000000
0ffff0
0c0030
0c0030
0ffff0
0c0030
ENDCHAR
STARTCHAR ch-402
ENCODING 402
SWIDTH 1000 0
DWIDTH 24 0
BBX 24 24 0 -3
BITMAP
060400
7f0630
000ff8
001820
032040
ff9ffc
001004
001004
061ffc
7f0820
000f38
000822
063f23
7f183f
000000
001ffc
461084
7f1084
661ffc
660050
66044a
660e43
7e187f
66603e
ENDCHAR
STARTCHAR ch-403
ENCODING 403
SWIDTH 1000 0
DWIDTH 24 0
BBX 24 24 0 -3
BITMAP
0601c0
7f0186
007fff
000000
031f7c
ff9144
001144
001f7c
060220
7f1ffc
000220
000220
061ffc
7f0220
000226
007fff
460644
7f0c46
661c2c
666430
6604d8
663f1f
7e1c0e
661006
ENDCHAR
STARTCHAR ch-406
ENCODING 406
SWIDTH 1000 0
DWIDTH 24 0
BBX 24 24 0 -3
BITMAP
044470
7e6660
006668
00cc66
02ab62
ff1160
000066
01ffff
042460
7e2460
002460
00e764
042467
7e2466
00e726
00242c
46242c
7ee738
662412
66243a
66272a
67fc4e
7ee087
668103
ENDCHAR
STARTCHAR ch-409
ENCODING 409
SWIDTH 1000 0
DWIDTH 24 0
BBX 24 24 0 -3
BITMAP
060e38
7f0c32
007fff
000c30
030c30
ffbe7c
002244
002244
063e7c
7f1080
001ce0
0018c4
063ffe
7f3080
007088
00bffc
463080
7f3088
663ffc
663080
663080
663086
7e3fff
663000
ENDCHAR
STARTCHAR ch-410
ENCODING 410
SWIDTH 1000 0
DWIDTH 24 0
BBX 24 24 0 -3
BITMAP
062c58
7f2850
007efe
004890
030810
ffffff
001428
00152a
06364b
7f248f
004000
001ffc
06180c
7f1ffc
00180c
00180c
431ffc
7f980c
63180c
631ffc
630400
630e38
7f1c0e
636006
ENDCHAR
ENDFONT
